# xmcd CD database file
#
# Track frame offsets:
#	150
#	15562
#	28605
#	42985
#	57287
#	79692
#	93055
#	115812
#	130192
#	139245
#	162917
#	179890
#
# Disc length: 2780 seconds
#
# Revision: 0
# Processed by: cddbd v1.5.1PL0 Copyright (c) Steve Scherf et al.
# Submitted via: CDex 1.51
#
DISCID=9a0ada0c
DTITLE=DJ Magic Mike - Dance Dragon Bass Vol.2
DYEAR=1999
DGENRE=Bass
TTITLE0=Lay It Down - Quad Master Uno and DJ Trans
TTITLE1=Don't Stop - Quad Master Uno and DJ Trans
TTITLE2=Get Some - Quad Master Uno and DJ Trans
TTITLE3=Hit it - DJ Quad
TTITLE4=Pump It - Quad Master Uno and DJ Trans
TTITLE5=Dance Witt Me - Quad Master Uno and DJ Trans
TTITLE6=Come and Be My - DJ Magic Mike, Quad Master Uno and DJ Trans
TTITLE7=Yo Hat, Yo Coat - Quad Master Uno and K.T. Girls
TTITLE8=Do What'cha Gotta Do - Bang'em Clan
TTITLE9=DJ Quad - DJ Quad
TTITLE10=Nice and Mello - Quad Master Uno
TTITLE11=Fantasy - Quad Master Uno,DJ Trans,Co-Co Weeks,Ginger Merchant and William(Da'Man)White
EXTD=YEAR: 1999
EXTT0=
EXTT1=
EXTT2=
EXTT3=
EXTT4=
EXTT5=
EXTT6=
EXTT7=
EXTT8=
EXTT9=
EXTT10=
EXTT11=
PLAYORDER=
